<svg width="122" height="28" viewBox="0 0 122 28" fill="none" xmlns="http://www.w3.org/2000/svg">
<path d="M11.7557 0.818181L7.40909 27H0.301136L4.64773 0.818181H11.7557ZM19.8288 15.9545L17.9879 27H10.9311L14.2038 7.36364H20.9027L20.2891 11.0966H20.4936C21.1158 9.84375 22.0234 8.8679 23.2166 8.16903C24.4183 7.46165 25.7436 7.10795 27.1925 7.10795C28.5817 7.10795 29.7365 7.4233 30.657 8.05398C31.5774 8.68466 32.2294 9.55398 32.6129 10.6619C32.9964 11.7699 33.0646 13.0398 32.8175 14.4716L30.7209 27H23.6641L25.505 15.9545C25.6669 14.983 25.5476 14.2202 25.147 13.6662C24.755 13.1122 24.1072 12.8352 23.2038 12.8352C22.6328 12.8352 22.1087 12.9631 21.6314 13.2188C21.1626 13.4659 20.7706 13.8239 20.4553 14.2926C20.1484 14.7528 19.9396 15.3068 19.8288 15.9545ZM43.1023 15.9545L41.2614 27H34.2045L37.4773 7.36364H44.1761L43.5625 11.0966H43.767C44.3892 9.84375 45.2969 8.8679 46.4901 8.16903C47.6918 7.46165 49.017 7.10795 50.4659 7.10795C51.8551 7.10795 53.0099 7.4233 53.9304 8.05398C54.8509 8.68466 55.5028 9.55398 55.8864 10.6619C56.2699 11.7699 56.3381 13.0398 56.0909 14.4716L53.9943 27H46.9375L48.7784 15.9545C48.9403 14.983 48.821 14.2202 48.4205 13.6662C48.0284 13.1122 47.3807 12.8352 46.4773 12.8352C45.9063 12.8352 45.3821 12.9631 44.9048 13.2188C44.4361 13.4659 44.044 13.8239 43.7287 14.2926C43.4219 14.7528 43.2131 15.3068 43.1023 15.9545ZM66.8359 27.358C64.7053 27.358 62.9496 26.9361 61.5689 26.0923C60.1967 25.2401 59.2337 24.0554 58.6797 22.5384C58.1257 21.0128 58.0149 19.2443 58.3473 17.233C58.6797 15.2216 59.3743 13.4574 60.4311 11.9403C61.4879 10.4148 62.8473 9.23011 64.5092 8.38636C66.1712 7.53409 68.0717 7.10795 70.2109 7.10795C72.3331 7.10795 74.0803 7.53409 75.4524 8.38636C76.8331 9.23011 77.8004 10.4148 78.3544 11.9403C78.9169 13.4574 79.032 15.2216 78.6996 17.233C78.3672 19.2443 77.6683 21.0128 76.603 22.5384C75.5376 24.0554 74.174 25.2401 72.5121 26.0923C70.8587 26.9361 68.9666 27.358 66.8359 27.358ZM67.7053 22.142C68.3189 22.142 68.8771 21.9418 69.38 21.5412C69.8913 21.1406 70.326 20.5696 70.6839 19.8281C71.0504 19.0866 71.3189 18.2045 71.4893 17.1818C71.6598 16.1506 71.6854 15.2685 71.5661 14.5355C71.4467 13.794 71.1996 13.223 70.8246 12.8224C70.4496 12.4219 69.9553 12.2216 69.3416 12.2216C68.728 12.2216 68.1655 12.4219 67.6541 12.8224C67.1428 13.223 66.7081 13.794 66.3501 14.5355C65.9922 15.2685 65.728 16.1506 65.5575 17.1818C65.3871 18.2045 65.3572 19.0866 65.468 19.8281C65.5874 20.5696 65.8345 21.1406 66.2095 21.5412C66.593 21.9418 67.0916 22.142 67.7053 22.142ZM102.392 7.36364L92.5224 27H84.3406L81.0167 7.36364H88.1758L89.1985 20.3523H89.4031L94.7212 7.36364H102.392ZM106.054 27.3068C104.81 27.3068 103.74 27.1023 102.846 26.6932C101.959 26.2756 101.311 25.6449 100.902 24.8011C100.502 23.9489 100.412 22.875 100.634 21.5795C100.813 20.5057 101.15 19.5895 101.644 18.831C102.138 18.0724 102.752 17.4503 103.485 16.9645C104.218 16.4787 105.04 16.108 105.952 15.8523C106.873 15.5881 107.844 15.4176 108.867 15.3409C109.975 15.2557 110.874 15.1491 111.564 15.0213C112.255 14.8935 112.77 14.7187 113.111 14.4972C113.452 14.2756 113.657 13.9773 113.725 13.6023V13.5511C113.801 13.0398 113.665 12.6477 113.316 12.375C112.975 12.1023 112.498 11.9659 111.884 11.9659C111.219 11.9659 110.644 12.1108 110.158 12.4006C109.681 12.6903 109.353 13.142 109.174 13.7557H102.679C102.952 12.5625 103.51 11.4631 104.354 10.4574C105.206 9.44318 106.336 8.63352 107.742 8.02841C109.157 7.41477 110.844 7.10795 112.804 7.10795C114.202 7.10795 115.429 7.27415 116.486 7.60653C117.543 7.9304 118.417 8.38636 119.107 8.97443C119.806 9.55398 120.296 10.2358 120.577 11.0199C120.867 11.7955 120.935 12.6392 120.782 13.5511L118.532 27H111.935L112.395 24.2386H112.242C111.73 24.9716 111.155 25.5639 110.516 26.0156C109.885 26.4673 109.195 26.7955 108.445 27C107.703 27.2045 106.907 27.3068 106.054 27.3068ZM109.123 22.858C109.651 22.858 110.171 22.7472 110.682 22.5256C111.194 22.304 111.632 21.9844 111.999 21.5668C112.365 21.1491 112.6 20.642 112.702 20.0455L112.958 18.4091C112.77 18.4858 112.561 18.5582 112.331 18.6264C112.11 18.6861 111.875 18.7457 111.628 18.8054C111.39 18.8651 111.134 18.9205 110.861 18.9716C110.597 19.0227 110.324 19.0739 110.043 19.125C109.48 19.2102 109.007 19.3509 108.624 19.5469C108.24 19.7344 107.942 19.9688 107.729 20.25C107.516 20.5227 107.384 20.8295 107.333 21.1705C107.256 21.7074 107.38 22.125 107.703 22.4233C108.036 22.7131 108.509 22.858 109.123 22.858Z" fill="#053396"/>
</svg>
